<?xml version="1.0" encoding="utf-8"?>
<svg version="1.1" xmlns:xlink="http://www.w3.org/1999/xlink" width="40px" height="50px" xmlns="http://www.w3.org/2000/svg">
  <defs>
    <filter x="236px" y="166px" width="40px" height="50px" filterUnits="userSpaceOnUse" id="filter3">
      <feOffset dx="1" dy="1" in="SourceAlpha" result="shadowOffsetInner" />
      <feGaussianBlur stdDeviation="2.5" in="shadowOffsetInner" result="shadowGaussian" />
      <feComposite in2="shadowGaussian" operator="atop" in="SourceAlpha" result="shadowComposite" />
      <feColorMatrix type="matrix" values="0 0 0 0 0  0 0 0 0 0  0 0 0 0 0  0 0 0 0.698039215686274 0  " in="shadowComposite" />
    </filter>
    <g id="widget4">
      <path d="M 255 209.036928468354  C 249.2 199.40734059591  240.5 193.629587872444  240.5 184  C 240.5 178.985714285714  243.4 170.5  255 170.5  C 266.6 170.5  269.5 178.985714285714  269.5 184  C 269.5 193.629587872444  260.8 199.40734059591  255 209.036928468354  Z " fill-rule="nonzero" fill="#009dd9" stroke="none" />
      <path d="M 255 210  C 249 200  240 194  240 184  C 240 178.8  243 170  255 170  C 267 170  270 178.8  270 184  C 270 194  261 200  255 210  Z M 255 208.073856936707  C 260.6 198.81468119182  269 193.259175744887  269 184  C 269 179.171428571429  266.2 171  255 171  C 243.8 171  241 179.171428571429  241 184  C 241 193.259175744887  249.4 198.81468119182  255 208.073856936707  Z " fill-rule="nonzero" fill="#ffffff" stroke="none" />
    </g>
  </defs>
  <g transform="matrix(1 0 0 1 -236 -166 )">
    <use xlink:href="#widget4" filter="url(#filter3)" />
    <use xlink:href="#widget4" />
  </g>
</svg>